PathFileType	4	(X/Y/Z)	W10_1_OpenSim.trc																																																																																																																						
DataRate	CameraRate	NumFrames	NumMarkers	Units	OrigDataRate	OrigDataStartFrame	OrigNumFrames																																																																																																																		
100	100	9	40	mm	100	1126	3000																																																																																																																		
Frame#	Time	R.ASIS			R.PSIS			S2			L.PSIS			L.ASIS			R.TH1			R.TH2			R.TH3			R.MKnee			R.Knee			R.SH1			R.SH2			R.SH3			R.SH4			R.Ankle			R.MAnkle			R.Heel			R.MT5			R.MT1			L.TH1			L.TH2			L.TH3			L.TH4			L.MKnee			L.Knee			L.SH1			L.SH2			L.SH3			L.Ankle			L.MAnkle			L.Heel			L.MT5			L.MT1			R.Acr			L.Acr			C7			T10			Clav			Sternum			R.Back		
		X1	Y1	Z1	X2	Y2	Z2	X3	Y3	Z3	X4	Y4	Z4	X5	Y5	Z5	X6	Y6	Z6	X7	Y7	Z7	X8	Y8	Z8	X9	Y9	Z9	X10	Y10	Z10	X11	Y11	Z11	X12	Y12	Z12	X13	Y13	Z13	X14	Y14	Z14	X15	Y15	Z15	X16	Y16	Z16	X17	Y17	Z17	X18	Y18	Z18	X19	Y19	Z19	X20	Y20	Z20	X21	Y21	Z21	X22	Y22	Z22	X23	Y23	Z23	X24	Y24	Z24	X25	Y25	Z25	X26	Y26	Z26	X27	Y27	Z27	X28	Y28	Z28	X29	Y29	Z29	X30	Y30	Z30	X31	Y31	Z31	X32	Y32	Z32	X33	Y33	Z33	X34	Y34	Z34	X35	Y35	Z35	X36	Y36	Z36	X37	Y37	Z37	X38	Y38	Z38	X39	Y39	Z39	X40	Y40	Z40
1126	11.25	1021.1507	1046.9445	-419.98	831.1839	1050.8151	-511.4585	822.2893	1050.0499	-556.7283	828.2218	1059.7925	-606.3192	1004.5375	1061.3806	-714.5819	1052.6649	723.4633	-402.902	974.6675	701.899	-391.5452	1003.5121	595.9203	-399.754	1048.9775	482.1951	-521.415	1038.9001	491.235	-402.5027	931.5198	369.6661	-397.0563	849.0122	294.0063	-412.6753	876.5496	431.4487	-391.2847	794.5518	352.4752	-396.8091	683.9482	242.4574	-403.4622	723.934	220.1657	-493.0723	625.5604	275.4981	-465.3315	701.696	122.1339	-373.8419	736.3987	83.7307	-459.4182	1055.1959	771.9718	-728.2909	1070.9745	664.9508	-714.2213	973.1849	755.5384	-737.1822	991.6701	649.0568	-716.1934	1064.7511	515.9686	-585.0258	1065.4041	518.5051	-695.1568	1073.3159	383.261	-709.728	991.4277	385.6343	-715.7767	990.7044	276.1523	-705.687	1039.007	80.1555	-697.1034	1067.9528	92.053	-598.2424	974.2869	39.2744	-641.1143	1148.2566	32.4496	-710.8939	1186.6919	45.4518	-610.7502	995.76	1450.6937	-409.4858	931.8351	1440.7687	-731.7977	907.7349	1493.4091	-565.1543	864.6227	1166.9512	-552.5478	1041.261	1393.709	-582.243	1065.0303	1249.0498	-571.4552	839.6118	1400.687	-465.0601
1127	11.26	1020.0576	1048.8123	-420.9457	830.3997	1052.8784	-512.7758	821.5499	1052.0909	-558.0558	827.5689	1061.7728	-607.6425	1003.983	1062.6921	-715.78	1056.7144	727.8036	-403.2714	979.1883	704.204	-392.7514	1010.8857	599.0192	-400.589	1059.4498	486.6395	-522.2047	1049.007	495.4237	-403.065	942.0294	374.253	-398.3019	859.3517	298.8108	-414.2212	887.1508	436.223	-392.9775	805.0623	357.3657	-398.5436	694.2297	248.1914	-405.6559	734.7253	225.1134	-494.9309	635.9849	280.3548	-468.0658	712.4457	128.3742	-374.8681	747.5702	88.8301	-459.7336	1051.9392	772.1097	-729.0495	1066.3762	664.9036	-715.1585	969.8332	756.7819	-738.2526	986.8512	650.0425	-717.2177	1057.7892	516.0539	-585.8824	1058.5558	518.4368	-695.9964	1065.3928	383.1098	-710.3564	983.6035	386.0465	-716.7009	982.0932	276.5734	-706.4291	1029.1383	80.181	-697.1785	1057.9338	92.1398	-598.3632	964.2917	39.3396	-641.2034	1138.2385	32.4554	-710.9802	1176.6543	45.4529	-610.8202	994.0134	1451.7175	-409.7215	932.3634	1442.7317	-732.5772	907.2003	1495.058	-565.9739	863.8906	1168.5825	-554.2101	1040.7172	1395.2178	-582.4162	1064.1903	1250.5242	-571.8043	838.2463	1402.106	-466.7235
1128	11.27	1018.9591	1050.8545	-421.9352	829.551	1055.042	-514.0051	820.7355	1054.1888	-559.2961	826.8384	1063.7577	-608.8879	1003.3409	1063.886	-716.8915	1060.3417	732.3386	-403.5202	983.3553	706.7708	-393.7951	1017.8055	602.4227	-401.2828	1069.3951	491.3916	-522.9113	1058.5967	499.8816	-403.5944	952.4658	378.6292	-399.4359	870.0504	302.9236	-415.6327	897.342	440.4881	-394.8017	815.5714	361.337	-400.3494	705.1544	252.088	-407.7708	746.2196	228.679	-496.7719	646.7178	282.869	-470.6164	724.9243	133.0148	-375.8295	760.6831	92.887	-460.134	1048.506	772.1755	-729.718	1061.5529	664.8045	-716.0041	966.3029	757.9854	-739.2173	981.8553	650.999	-718.1357	1050.6356	516.1153	-586.6435	1051.4611	518.3694	-696.7593	1057.2836	382.9814	-710.9302	975.5709	386.4451	-717.4908	973.3464	276.9815	-707.0562	1019.2522	80.2381	-697.2418	1047.9194	92.2254	-598.4343	954.2808	39.4262	-641.2806	1128.2129	32.458	-711.0554	1166.583	45.4397	-610.876	992.2288	1452.7561	-409.906	932.8441	1444.7154	-733.279	906.6481	1496.687	-566.7322	863.1096	1170.2179	-555.8445	1040.1089	1396.7067	-582.5601	1063.3549	1252.0065	-572.1075	836.8709	1403.5171	-468.3502
1129	11.28	1017.8477	1052.983	-422.953	828.6187	1057.2108	-515.1303	819.835	1056.2653	-560.4333	826.0193	1065.6948	-610.0378	1002.6202	1064.9552	-717.9164	1063.5945	737.0008	-403.6495	987.2023	709.5476	-394.6531	1024.2756	606.0644	-401.8184	1078.8087	496.3765	-523.504	1067.6698	504.5238	-404.0583	962.8602	382.6645	-400.4195	881.1388	306.2306	-416.8613	907.1672	444.1075	-396.6466	826.1179	364.2593	-402.1435	716.7792	254.1165	-409.7214	758.435	230.7924	-498.5353	657.8883	283.1825	-472.8838	738.9246	135.9359	-376.7299	775.4829	95.7021	-460.6151	1044.8897	772.1671	-730.3384	1056.4871	664.6493	-716.7715	962.569	759.1404	-740.0729	976.6588	651.9269	-718.9364	1043.3412	516.1372	-587.316	1044.1154	518.297	-697.4576	1048.9686	382.8706	-711.4648	967.2997	386.8316	-718.1032	964.4318	277.3771	-707.525	1009.3341	80.318	-697.2844	1037.9109	92.3009	-598.4545	944.2468	39.5323	-641.3373	1118.1754	32.4606	-711.1159	1156.4873	45.4134	-610.9178	990.4171	1453.8015	-410.046	933.2921	1446.699	-733.907	906.0861	1498.2789	-567.4385	862.2873	1171.8389	-557.4485	1039.4574	1398.1682	-582.6753	1062.5311	1253.4841	-572.3774	835.4988	1404.9053	-469.9419
1130	11.29	1016.7138	1055.1014	-423.9781	827.5843	1059.2905	-516.1346	818.8347	1058.2407	-561.4491	825.0955	1067.5299	-611.0709	1001.8236	1065.8962	-718.8557	1066.5242	741.7246	-403.6652	990.7556	712.4814	-395.3127	1030.3002	609.8784	-402.1913	1087.6847	501.5133	-523.9621	1076.225	509.27	-404.4258	973.2273	386.2549	-401.2282	892.6262	308.6636	-417.8753	916.6679	446.9756	-398.3964	836.7337	366.0507	-403.8392	729.1244	254.3051	-411.442	771.3865	231.4503	-500.1651	669.6022	281.4451	-474.8222	754.2467	137.113	-377.5661	791.7559	97.1904	-461.1551	1041.0835	772.0872	-730.9439	1051.1707	664.4409	-717.4722	958.618	760.2405	-740.817	971.247	652.8284	-719.6163	1035.9509	516.1039	-587.918	1036.5239	518.2163	-698.1071	1040.4397	382.7732	-711.9735	958.7832	387.2085	-718.5341	955.3391	277.7611	-707.8301	999.3823	80.408	-697.3035	1027.9047	92.3576	-598.4324	934.179	39.6574	-641.3693	1108.1234	32.4669	-711.1627	1146.3785	45.3764	-610.9492	988.5905	1454.8367	-410.1465	933.7321	1448.657	-734.4651	905.5234	1499.8143	-568.0997	861.4305	1173.4265	-559.0154	1038.7817	1399.5881	-582.758	1061.7185	1254.9355	-572.6217	834.1417	1406.2556	-471.4977
1131	11.3	1015.547	1057.1186	-424.9745	826.4382	1061.2015	-517.0032	817.725	1060.0487	-562.3267	824.0528	1069.215	-611.9673	1000.9475	1066.7097	-719.7129	1069.1759	746.442	-403.5748	994.0321	715.515	-395.7674	1035.8829	613.7947	-402.4025	1096.0024	506.7084	-524.2709	1084.2531	514.0433	-404.6735	983.56	389.3345	-401.8505	904.5006	310.204	-418.6615	925.8705	449.0263	-399.9474	847.4348	366.6826	-405.3565	742.1798	252.7289	-412.8871	785.0792	230.708	-501.6112	681.9298	277.7939	-476.4281	770.7259	136.609	-378.3265	809.3523	97.3778	-461.7172	1037.082	771.9404	-731.5519	1045.6054	664.1873	-718.1144	954.4518	761.2815	-741.4512	965.6209	653.7054	-720.1817	1028.4951	516.0054	-588.4747	1028.7047	518.1272	-698.7244	1031.7086	382.685	-712.4672	950.0439	387.5763	-718.8177	946.0834	278.1338	-708.0026	989.4033	80.4958	-697.3029	1017.8998	92.3919	-598.383	924.0685	39.8028	-641.3809	1098.0537	32.4812	-711.202	1136.2681	45.3316	-610.9777	986.7631	1455.8373	-410.2133	934.1916	1450.5609	-734.9557	904.97	1501.273	-568.7195	860.5466	1174.9624	-560.5336	1038.0975	1400.9459	-582.8003	1060.9132	1256.3323	-572.8434	832.8094	1407.5516	-473.0134
1132	11.31	1014.3416	1058.9618	-425.9027	825.1848	1062.891	-517.7248	816.506	1061.6449	-563.0539	822.8851	1070.7167	-612.7126	999.9827	1067.3994	-720.4954	1071.5778	751.0811	-403.3839	997.0402	718.5851	-396.0139	1041.0262	617.7384	-402.4538	1103.7227	511.8604	-524.4205	1091.7352	518.77	-404.7908	993.8348	391.8765	-402.2813	916.731	310.8811	-419.2205	934.7853	450.2323	-401.22	858.2259	366.1717	-406.6323	755.9236	249.4966	-414.0269	799.5091	228.6557	-502.8236	694.9114	272.3519	-477.7144	788.2468	134.5552	-378.9912	828.1794	96.3743	-462.2538	1032.8861	771.7319	-732.1661	1039.8054	663.8977	-718.703	950.0866	762.2622	-741.9835	959.7988	654.5582	-720.6486	1020.9893	515.8409	-589.0132	1020.689	518.0315	-699.3251	1022.8133	382.6004	-712.9546	941.1329	387.9321	-719.0146	936.7017	278.4941	-708.1008	979.4069	80.571	-697.2905	1007.9017	92.4081	-598.3214	913.9119	39.9709	-641.3859	1087.9623	32.5066	-711.2452	1126.1656	45.2827	-611.0126	984.9507	1456.7755	-410.2541	934.6935	1452.3802	-735.3796	904.4356	1502.6345	-569.2999	859.6442	1176.429	-561.988	1037.4175	1402.217	-582.7939	1060.1106	1257.6412	-573.0405	831.5098	1408.7764	-474.4821
1133	11.32	1013.098	1060.5824	-426.7313	823.842	1064.3369	-518.2948	815.189	1063.0118	-563.6257	821.5979	1072.0204	-613.3012	998.9171	1067.9686	-721.2144	1073.7424	755.5708	-403.0972	999.7821	721.627	-396.0525	1045.7295	621.6327	-402.3479	1110.7983	516.8732	-524.4129	1098.6471	523.3813	-404.7806	1004.0191	393.8851	-402.5192	929.2745	310.7597	-419.5573	943.4128	450.5959	-402.1642	869.1092	364.5671	-407.6237	770.3403	244.7383	-414.8413	814.667	225.397	-503.7487	708.5723	265.2381	-478.6871	806.7465	131.1292	-379.531	848.176	94.3432	-462.7105	1028.5092	771.4674	-732.7826	1033.7991	663.5791	-719.2424	945.5509	763.1825	-742.4284	953.8173	655.3827	-721.0386	1013.4392	515.6187	-589.5589	1012.5232	517.9313	-699.9228	1013.8122	382.5135	-713.4398	932.1238	388.2696	-719.1934	927.2425	278.841	-708.1946	969.403	80.6265	-697.2766	997.9197	92.4177	-598.2595	903.7153	40.1597	-641.4018	1077.8474	32.5451	-711.3051	1116.0767	45.2351	-611.0629	983.1705	1457.6235	-410.2758	935.251	1454.0845	-735.7382	903.9281	1503.8815	-569.8414	858.7327	1177.8092	-563.362	1036.7532	1403.3755	-582.7349	1059.3055	1258.8265	-573.2065	830.2493	1409.9136	-475.8953
1134	11.33	1011.819	1061.9568	-427.4447	822.4362	1065.5463	-518.7159	813.7953	1064.157	-564.0458	820.2076	1073.1296	-613.7366	997.7389	1068.4183	-721.8844	1075.6747	759.8458	-402.7205	1002.2559	724.581	-395.8888	1049.9897	625.4047	-402.0897	1117.1879	521.661	-524.2672	1104.9646	527.8126	-404.6574	1014.0799	395.3811	-402.5663	942.0885	309.9219	-419.6752	951.7534	450.137	-402.7575	880.0941	361.9358	-408.306	785.431	238.5971	-415.3158	830.538	221.0408	-504.3359	722.9374	256.5773	-479.3332	826.2071	126.535	-379.9068	869.2817	91.4725	-463.0336	1023.9802	771.1513	-733.3921	1027.6322	663.2337	-719.7395	940.8852	764.0416	-742.8056	947.727	656.1707	-721.3767	1005.8454	515.3541	-590.1295	1004.2668	517.827	-700.5274	1004.7693	382.4199	-713.9205	923.101	388.5813	-719.4125	917.7582	279.1751	-708.3447	959.3985	80.66	-697.2711	987.9604	92.4325	-598.2076	893.5003	40.3574	-641.4401	1067.7172	32.596	-711.3937	1106.0006	45.1949	-611.1328	981.4409	1458.3558	-410.282	935.8669	1455.6461	-736.034	903.4536	1504.9999	-570.3419	857.8178	1179.0862	-564.6388	1036.1135	1404.3965	-582.6255	1058.493	1259.853	-573.3323	829.0341	1410.9493	-477.2438
